<svg width="110" height="43" viewBox="0 0 110 43" fill="none" xmlns="http://www.w3.org/2000/svg">
<rect y="0.720703" width="110" height="42" rx="8" fill="#EFF5A9"/>
<path d="M14.896 15.3487C15.024 15.3487 15.088 15.418 15.088 15.5567V26.9487C15.088 27.0554 15.0667 27.13 15.024 27.1727C14.9813 27.2047 14.9067 27.2207 14.8 27.2207H13.792C13.696 27.2207 13.632 27.2047 13.6 27.1727C13.568 27.1407 13.552 27.082 13.552 26.9967V15.5727C13.552 15.4234 13.616 15.3487 13.744 15.3487H14.896ZM18.0966 27.2207C17.9473 27.2207 17.8726 27.1514 17.8726 27.0127V18.9487C17.8726 18.81 17.9313 18.7407 18.0486 18.7407H19.0086C19.126 18.7407 19.1846 18.7994 19.1846 18.9167V19.8447C19.1846 19.898 19.1953 19.93 19.2166 19.9407C19.238 19.9514 19.2753 19.9354 19.3286 19.8927C19.6806 19.6154 20.006 19.3807 20.3046 19.1887C20.614 18.986 20.9286 18.8367 21.2486 18.7407C21.5686 18.634 21.91 18.5807 22.2726 18.5807C23.1046 18.5807 23.7393 18.8047 24.1766 19.2527C24.6246 19.7007 24.8486 20.282 24.8486 20.9967V26.9647C24.8486 27.1354 24.7686 27.2207 24.6086 27.2207H23.7126C23.638 27.2207 23.5846 27.2047 23.5526 27.1727C23.5206 27.13 23.5046 27.0767 23.5046 27.0127V21.3007C23.5046 20.778 23.3713 20.3727 23.1046 20.0847C22.838 19.786 22.4166 19.6367 21.8406 19.6367C21.5313 19.6367 21.238 19.69 20.9606 19.7967C20.694 19.8927 20.422 20.0367 20.1446 20.2287C19.8673 20.41 19.558 20.6447 19.2166 20.9327V26.9807C19.2166 27.1407 19.1366 27.2207 18.9766 27.2207H18.0966ZM39.5823 18.8047C39.5823 19.594 39.4009 20.2447 39.0383 20.7567C38.6756 21.2687 38.1796 21.6474 37.5503 21.8927C36.9209 22.138 36.1903 22.2607 35.3583 22.2607H32.6383C32.5423 22.2607 32.4943 22.3087 32.4943 22.4047V26.9807C32.4943 27.1407 32.4143 27.2207 32.2543 27.2207H31.1663C31.0916 27.2207 31.0383 27.2047 31.0063 27.1727C30.9743 27.1407 30.9583 27.0874 30.9583 27.0127V15.5727C30.9583 15.4234 31.0223 15.3487 31.1503 15.3487H35.1823C36.0249 15.3487 36.7769 15.466 37.4383 15.7007C38.0996 15.9354 38.6223 16.3087 39.0063 16.8207C39.3903 17.3327 39.5823 17.994 39.5823 18.8047ZM38.0143 18.7567C38.0143 18.2127 37.8916 17.7754 37.6463 17.4447C37.4116 17.114 37.0756 16.8794 36.6383 16.7407C36.2116 16.5914 35.6996 16.5167 35.1023 16.5167H32.7023C32.5636 16.5167 32.4943 16.5807 32.4943 16.7087V20.8687C32.4943 21.018 32.5423 21.0927 32.6383 21.0927H35.2143C36.0569 21.0927 36.7343 20.906 37.2463 20.5327C37.7583 20.1594 38.0143 19.5674 38.0143 18.7567ZM41.9091 27.2207C41.8345 27.2207 41.7758 27.2047 41.7331 27.1727C41.7011 27.13 41.6851 27.0767 41.6851 27.0127V18.9487C41.6851 18.81 41.7438 18.7407 41.8611 18.7407H42.7891C42.9065 18.7407 42.9651 18.7994 42.9651 18.9167V19.9567C42.9651 20.0207 42.9811 20.058 43.0131 20.0687C43.0451 20.0794 43.0878 20.058 43.1411 20.0047C43.4185 19.674 43.6905 19.4074 43.9571 19.2047C44.2345 18.9914 44.5118 18.8367 44.7891 18.7407C45.0665 18.634 45.3438 18.5807 45.6211 18.5807C45.9945 18.5807 46.1811 18.65 46.1811 18.7887V19.7487C46.1811 19.8554 46.1331 19.898 46.0371 19.8767C45.9411 19.866 45.8291 19.8554 45.7011 19.8447C45.5838 19.834 45.4558 19.8287 45.3171 19.8287C45.0825 19.8287 44.8318 19.882 44.5651 19.9887C44.2985 20.0847 44.0478 20.2234 43.8131 20.4047C43.5891 20.586 43.4025 20.7887 43.2531 21.0127C43.1038 21.2367 43.0291 21.4607 43.0291 21.6847V26.9807C43.0291 27.1407 42.9491 27.2207 42.7891 27.2207H41.9091ZM51.159 27.3807C50.359 27.3807 49.6497 27.1994 49.031 26.8367C48.423 26.4634 47.9483 25.9514 47.607 25.3007C47.2763 24.6394 47.111 23.882 47.111 23.0287C47.111 22.1434 47.2817 21.37 47.623 20.7087C47.975 20.0367 48.455 19.514 49.063 19.1407C49.671 18.7674 50.375 18.5807 51.175 18.5807C51.9857 18.5807 52.6897 18.7727 53.287 19.1567C53.895 19.53 54.3643 20.0527 54.695 20.7247C55.0363 21.386 55.207 22.1487 55.207 23.0127C55.207 23.866 55.0363 24.6234 54.695 25.2847C54.3537 25.9354 53.879 26.4474 53.271 26.8207C52.6737 27.194 51.9697 27.3807 51.159 27.3807ZM51.191 26.3727C51.7457 26.3727 52.2203 26.2394 52.615 25.9727C53.0097 25.6954 53.3083 25.306 53.511 24.8047C53.7243 24.2927 53.831 23.6847 53.831 22.9807C53.831 22.2767 53.7243 21.674 53.511 21.1727C53.2977 20.6607 52.9937 20.266 52.599 19.9887C52.2043 19.7114 51.7297 19.5727 51.175 19.5727C50.631 19.5727 50.1563 19.7114 49.751 19.9887C49.3457 20.266 49.031 20.6607 48.807 21.1727C48.5937 21.674 48.487 22.2767 48.487 22.9807C48.487 23.674 48.5937 24.2767 48.807 24.7887C49.031 25.3007 49.3457 25.6954 49.751 25.9727C50.1563 26.2394 50.6363 26.3727 51.191 26.3727ZM64.8491 18.5967C64.9558 18.5967 65.0305 18.618 65.0731 18.6607C65.1265 18.7034 65.1531 18.7674 65.1531 18.8527V19.4127C65.1531 19.5087 65.1265 19.5834 65.0731 19.6367C65.0305 19.69 64.9505 19.7114 64.8331 19.7007C64.6625 19.7007 64.5131 19.7114 64.3851 19.7327C64.2571 19.754 64.1291 19.7914 64.0011 19.8447C63.7451 19.9407 63.6385 20.0634 63.6811 20.2127C63.7345 20.33 63.7931 20.474 63.8571 20.6447C63.9211 20.8047 63.9531 21.0234 63.9531 21.3007C63.9531 21.77 63.8305 22.202 63.5851 22.5967C63.3398 22.9807 62.9558 23.29 62.4331 23.5247C61.9211 23.7594 61.2705 23.8767 60.4811 23.8767C59.9371 23.8767 59.5105 23.9087 59.2011 23.9727C58.8918 24.0367 58.6731 24.122 58.5451 24.2287C58.4171 24.3354 58.3531 24.4474 58.3531 24.5647C58.3531 24.7354 58.4651 24.858 58.6891 24.9327C58.9238 25.0074 59.2971 25.0607 59.8091 25.0927L61.8731 25.2047C62.8118 25.258 63.4998 25.482 63.9371 25.8767C64.3745 26.2714 64.5931 26.7887 64.5931 27.4287C64.5931 28.2287 64.2358 28.858 63.5211 29.3167C62.8171 29.786 61.8091 30.0207 60.4971 30.0207C59.1425 30.0207 58.1078 29.8234 57.3931 29.4287C56.6891 29.0447 56.3371 28.49 56.3371 27.7647C56.3371 27.3914 56.4651 27.0554 56.7211 26.7567C56.9878 26.458 57.3611 26.1914 57.8411 25.9567C57.9585 25.9034 57.9585 25.8447 57.8411 25.7807C57.6065 25.674 57.4251 25.546 57.2971 25.3967C57.1691 25.2367 57.1051 25.05 57.1051 24.8367C57.1051 24.6874 57.1531 24.538 57.2491 24.3887C57.3451 24.2394 57.4838 24.1007 57.6651 23.9727C57.8571 23.8447 58.0865 23.7327 58.3531 23.6367C58.4171 23.6154 58.4491 23.5887 58.4491 23.5567C58.4491 23.5247 58.4225 23.4874 58.3691 23.4447C57.8998 23.21 57.5531 22.9167 57.3291 22.5647C57.1051 22.2127 56.9931 21.7914 56.9931 21.3007C56.9931 20.4687 57.3078 19.8127 57.9371 19.3327C58.5665 18.8527 59.4571 18.6127 60.6091 18.6127C61.1638 18.6127 61.6331 18.6767 62.0171 18.8047C62.4118 18.9327 62.7425 19.1087 63.0091 19.3327C63.0731 19.386 63.1318 19.4127 63.1851 19.4127C63.2385 19.4127 63.2918 19.386 63.3451 19.3327C63.4731 19.2154 63.6171 19.1034 63.7771 18.9967C63.9371 18.8794 64.1078 18.7834 64.2891 18.7087C64.4811 18.634 64.6678 18.5967 64.8491 18.5967ZM60.4811 23.0287C61.2278 23.0287 61.7825 22.8794 62.1451 22.5807C62.5078 22.2714 62.6891 21.8394 62.6891 21.2847C62.6891 20.7194 62.5078 20.2767 62.1451 19.9567C61.7825 19.626 61.2278 19.4607 60.4811 19.4607C59.7665 19.4607 59.2118 19.626 58.8171 19.9567C58.4331 20.2767 58.2411 20.7194 58.2411 21.2847C58.2411 21.8394 58.4331 22.2714 58.8171 22.5807C59.2118 22.8794 59.7665 23.0287 60.4811 23.0287ZM59.0731 26.1807C58.8811 26.17 58.6678 26.2287 58.4331 26.3567C58.1985 26.474 57.9905 26.6394 57.8091 26.8527C57.6278 27.066 57.5371 27.3167 57.5371 27.6047C57.5371 27.9354 57.6491 28.218 57.8731 28.4527C58.1078 28.698 58.4545 28.8794 58.9131 28.9967C59.3825 29.1247 59.9585 29.1887 60.6411 29.1887C61.5265 29.1887 62.1985 29.0554 62.6571 28.7887C63.1158 28.5327 63.3451 28.1327 63.3451 27.5887C63.3451 27.2367 63.2225 26.9487 62.9771 26.7247C62.7425 26.5007 62.3318 26.3727 61.7451 26.3407L59.0731 26.1807ZM67.0341 27.2207C66.9595 27.2207 66.9008 27.2047 66.8581 27.1727C66.8261 27.13 66.8101 27.0767 66.8101 27.0127V18.9487C66.8101 18.81 66.8688 18.7407 66.9861 18.7407H67.9141C68.0315 18.7407 68.0901 18.7994 68.0901 18.9167V19.9567C68.0901 20.0207 68.1061 20.058 68.1381 20.0687C68.1701 20.0794 68.2128 20.058 68.2661 20.0047C68.5435 19.674 68.8155 19.4074 69.0821 19.2047C69.3595 18.9914 69.6368 18.8367 69.9141 18.7407C70.1915 18.634 70.4688 18.5807 70.7461 18.5807C71.1195 18.5807 71.3061 18.65 71.3061 18.7887V19.7487C71.3061 19.8554 71.2581 19.898 71.1621 19.8767C71.0661 19.866 70.9541 19.8554 70.8261 19.8447C70.7088 19.834 70.5808 19.8287 70.4421 19.8287C70.2075 19.8287 69.9568 19.882 69.6901 19.9887C69.4235 20.0847 69.1728 20.2234 68.9381 20.4047C68.7141 20.586 68.5275 20.7887 68.3781 21.0127C68.2288 21.2367 68.1541 21.4607 68.1541 21.6847V26.9807C68.1541 27.1407 68.0741 27.2207 67.9141 27.2207H67.0341ZM73.628 23.5087C73.628 24.0314 73.7507 24.5114 73.996 24.9487C74.252 25.3754 74.588 25.7167 75.004 25.9727C75.4307 26.2287 75.9053 26.3567 76.428 26.3567C76.9613 26.3567 77.436 26.25 77.852 26.0367C78.268 25.8127 78.6253 25.4767 78.924 25.0287C78.9667 24.986 78.9987 24.9647 79.02 24.9647C79.052 24.954 79.0947 24.9594 79.148 24.9807L79.82 25.3167C79.916 25.37 79.9267 25.4447 79.852 25.5407C79.564 25.9674 79.244 26.3194 78.892 26.5967C78.5507 26.8634 78.1667 27.0607 77.74 27.1887C77.3133 27.3167 76.8333 27.3807 76.3 27.3807C75.5107 27.3807 74.812 27.1994 74.204 26.8367C73.596 26.474 73.116 25.9674 72.764 25.3167C72.412 24.666 72.236 23.914 72.236 23.0607C72.236 22.1327 72.412 21.338 72.764 20.6767C73.1267 20.0047 73.612 19.4874 74.22 19.1247C74.8387 18.762 75.5267 18.5807 76.284 18.5807C77.0627 18.5807 77.74 18.7514 78.316 19.0927C78.892 19.434 79.34 19.93 79.66 20.5807C79.98 21.2314 80.14 22.0154 80.14 22.9327C80.14 23.0074 80.1293 23.082 80.108 23.1567C80.0973 23.2314 80.028 23.2687 79.9 23.2687H73.772C73.7293 23.2687 73.692 23.2954 73.66 23.3487C73.6387 23.3914 73.628 23.4447 73.628 23.5087ZM78.524 22.3887C78.6413 22.3887 78.716 22.378 78.748 22.3567C78.78 22.3247 78.796 22.2607 78.796 22.1647C78.796 21.706 78.6947 21.2794 78.492 20.8847C78.3 20.4794 78.0173 20.154 77.644 19.9087C77.2813 19.6634 76.8387 19.5407 76.316 19.5407C75.74 19.5407 75.2547 19.6794 74.86 19.9567C74.4653 20.2234 74.1667 20.5754 73.964 21.0127C73.7613 21.45 73.66 21.9087 73.66 22.3887H78.524ZM87.1169 20.6127C86.9035 20.2927 86.6049 20.0314 86.2209 19.8287C85.8369 19.626 85.3782 19.5247 84.8449 19.5247C84.2689 19.5247 83.7889 19.6474 83.4049 19.8927C83.0315 20.138 82.8449 20.4687 82.8449 20.8847C82.8449 21.1087 82.9302 21.322 83.1009 21.5247C83.2715 21.7167 83.6182 21.898 84.1409 22.0687L86.1729 22.6767C86.9089 22.8794 87.4369 23.1727 87.7569 23.5567C88.0875 23.9407 88.2529 24.3834 88.2529 24.8847C88.2529 25.386 88.1035 25.8234 87.8049 26.1967C87.5062 26.57 87.0955 26.8634 86.5729 27.0767C86.0502 27.2794 85.4582 27.3807 84.7969 27.3807C83.9542 27.3807 83.2182 27.2154 82.5889 26.8847C81.9595 26.5434 81.5115 26.122 81.2449 25.6207C81.2129 25.5674 81.1969 25.5194 81.1969 25.4767C81.1969 25.434 81.2235 25.3967 81.2769 25.3647L81.9009 25.0127C81.9542 24.9807 82.0022 24.97 82.0449 24.9807C82.0875 24.9807 82.1195 24.9967 82.1409 25.0287C82.3222 25.306 82.5302 25.546 82.7649 25.7487C83.0102 25.9514 83.2982 26.1114 83.6289 26.2287C83.9702 26.346 84.3649 26.4047 84.8129 26.4047C85.2182 26.394 85.5862 26.3354 85.9169 26.2287C86.2475 26.122 86.5089 25.9674 86.7009 25.7647C86.8929 25.5514 86.9889 25.306 86.9889 25.0287C86.9889 24.7407 86.8715 24.4954 86.6369 24.2927C86.4022 24.0794 85.9969 23.8927 85.4209 23.7327L83.7729 23.2687C82.9729 23.0554 82.4075 22.7674 82.0769 22.4047C81.7569 22.042 81.5915 21.6154 81.5809 21.1247C81.5809 20.6127 81.7195 20.17 81.9969 19.7967C82.2742 19.4127 82.6582 19.114 83.1489 18.9007C83.6502 18.6874 84.2209 18.5807 84.8609 18.5807C85.5755 18.5807 86.2102 18.7194 86.7649 18.9967C87.3302 19.2634 87.7569 19.6207 88.0449 20.0687C88.0769 20.1114 88.0929 20.154 88.0929 20.1967C88.0929 20.2287 88.0715 20.2607 88.0289 20.2927L87.3569 20.6607C87.3142 20.682 87.2715 20.6927 87.2289 20.6927C87.1969 20.682 87.1595 20.6554 87.1169 20.6127ZM95.3044 20.6127C95.091 20.2927 94.7924 20.0314 94.4084 19.8287C94.0244 19.626 93.5657 19.5247 93.0324 19.5247C92.4564 19.5247 91.9764 19.6474 91.5924 19.8927C91.219 20.138 91.0324 20.4687 91.0324 20.8847C91.0324 21.1087 91.1177 21.322 91.2884 21.5247C91.459 21.7167 91.8057 21.898 92.3284 22.0687L94.3604 22.6767C95.0964 22.8794 95.6244 23.1727 95.9444 23.5567C96.275 23.9407 96.4404 24.3834 96.4404 24.8847C96.4404 25.386 96.291 25.8234 95.9924 26.1967C95.6937 26.57 95.283 26.8634 94.7604 27.0767C94.2377 27.2794 93.6457 27.3807 92.9844 27.3807C92.1417 27.3807 91.4057 27.2154 90.7764 26.8847C90.147 26.5434 89.699 26.122 89.4324 25.6207C89.4004 25.5674 89.3844 25.5194 89.3844 25.4767C89.3844 25.434 89.411 25.3967 89.4644 25.3647L90.0884 25.0127C90.1417 24.9807 90.1897 24.97 90.2324 24.9807C90.275 24.9807 90.307 24.9967 90.3284 25.0287C90.5097 25.306 90.7177 25.546 90.9524 25.7487C91.1977 25.9514 91.4857 26.1114 91.8164 26.2287C92.1577 26.346 92.5524 26.4047 93.0004 26.4047C93.4057 26.394 93.7737 26.3354 94.1044 26.2287C94.435 26.122 94.6964 25.9674 94.8884 25.7647C95.0804 25.5514 95.1764 25.306 95.1764 25.0287C95.1764 24.7407 95.059 24.4954 94.8244 24.2927C94.5897 24.0794 94.1844 23.8927 93.6084 23.7327L91.9604 23.2687C91.1604 23.0554 90.595 22.7674 90.2644 22.4047C89.9444 22.042 89.779 21.6154 89.7684 21.1247C89.7684 20.6127 89.907 20.17 90.1844 19.7967C90.4617 19.4127 90.8457 19.114 91.3364 18.9007C91.8377 18.6874 92.4084 18.5807 93.0484 18.5807C93.763 18.5807 94.3977 18.7194 94.9524 18.9967C95.5177 19.2634 95.9444 19.6207 96.2324 20.0687C96.2644 20.1114 96.2804 20.154 96.2804 20.1967C96.2804 20.2287 96.259 20.2607 96.2164 20.2927L95.5444 20.6607C95.5017 20.682 95.459 20.6927 95.4164 20.6927C95.3844 20.682 95.347 20.6554 95.3044 20.6127Z" fill="black"/>
</svg>
