<svg width="110" height="43" viewBox="0 0 110 43" fill="none" xmlns="http://www.w3.org/2000/svg">
<rect y="0.720703" width="110" height="42" rx="8" fill="#B1B1AD" fill-opacity="0.45"/>
<path d="M21.884 15.3487C22.0013 15.3487 22.06 15.4127 22.06 15.5407V27.0287C22.06 27.0927 22.0387 27.1407 21.996 27.1727C21.964 27.2047 21.916 27.2207 21.852 27.2207H21.068C21.004 27.2207 20.9453 27.2154 20.892 27.2047C20.8387 27.194 20.7853 27.1567 20.732 27.0927L14.556 18.1167C14.5027 18.042 14.46 18.01 14.428 18.0207C14.396 18.0314 14.38 18.0687 14.38 18.1327V27.0127C14.38 27.1514 14.3053 27.2207 14.156 27.2207H13.26C13.1213 27.2207 13.052 27.1514 13.052 27.0127V15.5727C13.052 15.4234 13.1213 15.3487 13.26 15.3487H14.172C14.2573 15.3487 14.3213 15.3594 14.364 15.3807C14.4067 15.3914 14.4547 15.434 14.508 15.5087L20.508 24.2927C20.572 24.3674 20.6253 24.394 20.668 24.3727C20.7213 24.3514 20.748 24.3087 20.748 24.2447V15.5407C20.748 15.4127 20.812 15.3487 20.94 15.3487H21.884ZM28.3934 27.3807C27.5934 27.3807 26.884 27.1994 26.2654 26.8367C25.6574 26.4634 25.1827 25.9514 24.8414 25.3007C24.5107 24.6394 24.3454 23.882 24.3454 23.0287C24.3454 22.1434 24.516 21.37 24.8574 20.7087C25.2094 20.0367 25.6894 19.514 26.2974 19.1407C26.9054 18.7674 27.6094 18.5807 28.4094 18.5807C29.22 18.5807 29.924 18.7727 30.5214 19.1567C31.1294 19.53 31.5987 20.0527 31.9294 20.7247C32.2707 21.386 32.4414 22.1487 32.4414 23.0127C32.4414 23.866 32.2707 24.6234 31.9294 25.2847C31.588 25.9354 31.1134 26.4474 30.5054 26.8207C29.908 27.194 29.204 27.3807 28.3934 27.3807ZM28.4254 26.3727C28.98 26.3727 29.4547 26.2394 29.8494 25.9727C30.244 25.6954 30.5427 25.306 30.7454 24.8047C30.9587 24.2927 31.0654 23.6847 31.0654 22.9807C31.0654 22.2767 30.9587 21.674 30.7454 21.1727C30.532 20.6607 30.228 20.266 29.8334 19.9887C29.4387 19.7114 28.964 19.5727 28.4094 19.5727C27.8654 19.5727 27.3907 19.7114 26.9854 19.9887C26.58 20.266 26.2654 20.6607 26.0414 21.1727C25.828 21.674 25.7214 22.2767 25.7214 22.9807C25.7214 23.674 25.828 24.2767 26.0414 24.7887C26.2654 25.3007 26.58 25.6954 26.9854 25.9727C27.3907 26.2394 27.8707 26.3727 28.4254 26.3727ZM36.4564 19.7487C36.371 19.7487 36.3284 19.7914 36.3284 19.8767V24.9487C36.3284 25.45 36.4137 25.786 36.5844 25.9567C36.755 26.1274 37.011 26.2127 37.3524 26.2127H38.4564C38.5097 26.2127 38.5524 26.2287 38.5844 26.2607C38.6164 26.282 38.6324 26.3247 38.6324 26.3887L38.6164 26.9327C38.6164 27.0394 38.5524 27.1087 38.4244 27.1407C38.3177 27.162 38.163 27.178 37.9604 27.1887C37.7684 27.1994 37.5764 27.21 37.3844 27.2207C37.203 27.2207 37.0484 27.2207 36.9204 27.2207C36.2484 27.2207 35.7577 27.066 35.4484 26.7567C35.139 26.4367 34.9844 25.9354 34.9844 25.2527V19.9087C34.9844 19.802 34.931 19.7487 34.8244 19.7487H33.5444C33.427 19.7487 33.3684 19.69 33.3684 19.5727V18.9007C33.3684 18.794 33.4217 18.7407 33.5284 18.7407H34.8884C34.963 18.7407 35.0004 18.698 35.0004 18.6127L35.1764 16.0687C35.187 15.93 35.2457 15.8607 35.3524 15.8607H36.1524C36.2804 15.8607 36.3444 15.9354 36.3444 16.0847V18.6127C36.3444 18.698 36.387 18.7407 36.4724 18.7407H38.4884C38.6057 18.7407 38.6644 18.7887 38.6644 18.8847V19.5727C38.6644 19.69 38.6057 19.7487 38.4884 19.7487H36.4564ZM50.5618 17.5567C50.2844 17.226 49.9271 16.9434 49.4898 16.7087C49.0524 16.474 48.5031 16.3567 47.8418 16.3567C47.0418 16.3567 46.4124 16.5327 45.9538 16.8847C45.4951 17.2367 45.2658 17.7274 45.2658 18.3567C45.2658 18.5274 45.3031 18.7247 45.3778 18.9487C45.4631 19.1727 45.6284 19.3914 45.8738 19.6047C46.1191 19.818 46.4871 20.01 46.9778 20.1807L49.2978 20.9487C50.2684 21.2687 50.9564 21.6954 51.3618 22.2287C51.7671 22.7514 51.9698 23.37 51.9698 24.0847C51.9698 24.7674 51.7991 25.3594 51.4578 25.8607C51.1164 26.3514 50.6311 26.73 50.0018 26.9967C49.3724 27.2527 48.6151 27.3807 47.7298 27.3807C47.0898 27.3807 46.4978 27.306 45.9538 27.1567C45.4098 26.9967 44.9244 26.7727 44.4978 26.4847C44.0818 26.186 43.7244 25.818 43.4258 25.3807C43.3724 25.306 43.3511 25.242 43.3618 25.1887C43.3831 25.1247 43.4364 25.0607 43.5218 24.9967L44.0978 24.5967C44.2044 24.5327 44.2844 24.5007 44.3378 24.5007C44.4018 24.5007 44.4551 24.5327 44.4978 24.5967C44.7858 24.9594 45.0684 25.2634 45.3458 25.5087C45.6231 25.7434 45.9431 25.9194 46.3058 26.0367C46.6791 26.154 47.1324 26.2127 47.6658 26.2127C48.5084 26.2127 49.1911 26.0634 49.7138 25.7647C50.2364 25.4554 50.4978 24.9487 50.4978 24.2447C50.4978 23.978 50.4444 23.738 50.3378 23.5247C50.2311 23.3007 50.0498 23.098 49.7938 22.9167C49.5378 22.7247 49.1698 22.538 48.6898 22.3567L46.2578 21.5247C45.6711 21.322 45.1964 21.0607 44.8338 20.7407C44.4711 20.4207 44.2044 20.0687 44.0338 19.6847C43.8738 19.3007 43.7938 18.906 43.7938 18.5007C43.7938 17.8287 43.9644 17.2474 44.3058 16.7567C44.6471 16.2554 45.1164 15.8714 45.7138 15.6047C46.3218 15.3274 47.0311 15.1887 47.8418 15.1887C48.3858 15.1887 48.8818 15.2527 49.3298 15.3807C49.7884 15.5087 50.2044 15.69 50.5778 15.9247C50.9618 16.1594 51.2978 16.442 51.5858 16.7727C51.6284 16.8154 51.6551 16.8634 51.6658 16.9167C51.6764 16.97 51.6498 17.0234 51.5858 17.0767L50.8498 17.6527C50.7964 17.6847 50.7538 17.6954 50.7218 17.6847C50.6898 17.6634 50.6364 17.6207 50.5618 17.5567ZM55.8783 19.7487C55.7929 19.7487 55.7503 19.7914 55.7503 19.8767V24.9487C55.7503 25.45 55.8356 25.786 56.0063 25.9567C56.1769 26.1274 56.4329 26.2127 56.7743 26.2127H57.8783C57.9316 26.2127 57.9743 26.2287 58.0063 26.2607C58.0383 26.282 58.0543 26.3247 58.0543 26.3887L58.0383 26.9327C58.0383 27.0394 57.9743 27.1087 57.8463 27.1407C57.7396 27.162 57.5849 27.178 57.3823 27.1887C57.1903 27.1994 56.9983 27.21 56.8063 27.2207C56.6249 27.2207 56.4703 27.2207 56.3423 27.2207C55.6703 27.2207 55.1796 27.066 54.8703 26.7567C54.5609 26.4367 54.4062 25.9354 54.4062 25.2527V19.9087C54.4062 19.802 54.3529 19.7487 54.2463 19.7487H52.9663C52.8489 19.7487 52.7903 19.69 52.7903 19.5727V18.9007C52.7903 18.794 52.8436 18.7407 52.9503 18.7407H54.3103C54.3849 18.7407 54.4223 18.698 54.4223 18.6127L54.5983 16.0687C54.6089 15.93 54.6676 15.8607 54.7743 15.8607H55.5743C55.7023 15.8607 55.7663 15.9354 55.7663 16.0847V18.6127C55.7663 18.698 55.8089 18.7407 55.8943 18.7407H57.9103C58.0276 18.7407 58.0863 18.7887 58.0863 18.8847V19.5727C58.0863 19.69 58.0276 19.7487 57.9103 19.7487H55.8783ZM64.7058 26.1967C64.3111 26.5807 63.8791 26.874 63.4098 27.0767C62.9511 27.2794 62.4338 27.3807 61.8578 27.3807C61.0258 27.3807 60.3698 27.1674 59.8898 26.7407C59.4204 26.314 59.1858 25.754 59.1858 25.0607C59.1858 24.4954 59.3458 24.01 59.6658 23.6047C59.9858 23.1887 60.4604 22.8634 61.0898 22.6287C61.7191 22.3834 62.4924 22.234 63.4098 22.1807L64.6578 22.0847C64.7218 22.074 64.7804 22.0527 64.8338 22.0207C64.8871 21.9887 64.9138 21.93 64.9138 21.8447V21.4127C64.9138 20.8367 64.7324 20.3834 64.3698 20.0527C64.0178 19.7114 63.5378 19.5407 62.9298 19.5407C62.4604 19.5407 62.0338 19.6474 61.6498 19.8607C61.2764 20.074 60.9404 20.394 60.6418 20.8207C60.5991 20.874 60.5618 20.9114 60.5298 20.9327C60.5084 20.9434 60.4658 20.938 60.4018 20.9167L59.5378 20.6287C59.5058 20.6074 59.4791 20.5807 59.4578 20.5487C59.4471 20.5167 59.4631 20.458 59.5058 20.3727C59.8258 19.818 60.2738 19.3807 60.8498 19.0607C61.4364 18.7407 62.1511 18.5807 62.9938 18.5807C63.7084 18.5807 64.3004 18.6927 64.7698 18.9167C65.2498 19.13 65.6071 19.4447 65.8418 19.8607C66.0871 20.266 66.2098 20.7514 66.2098 21.3167V26.9807C66.2098 27.0767 66.1938 27.1407 66.1618 27.1727C66.1298 27.2047 66.0764 27.2207 66.0018 27.2207H65.1858C65.1111 27.2207 65.0578 27.1994 65.0258 27.1567C64.9938 27.1034 64.9724 27.0394 64.9618 26.9647L64.9458 26.2287C64.9138 26.0794 64.8338 26.0687 64.7058 26.1967ZM64.9138 23.1567C64.9138 22.9754 64.8391 22.89 64.6898 22.9007L63.6338 22.9967C63.1431 23.018 62.7058 23.082 62.3218 23.1887C61.9378 23.2847 61.6124 23.4127 61.3458 23.5727C61.0791 23.7327 60.8764 23.9247 60.7378 24.1487C60.5991 24.362 60.5298 24.6127 60.5298 24.9007C60.5298 25.37 60.6898 25.738 61.0098 26.0047C61.3404 26.2607 61.7831 26.3887 62.3378 26.3887C62.6791 26.3887 63.0044 26.33 63.3138 26.2127C63.6338 26.0847 63.9111 25.9247 64.1458 25.7327C64.3911 25.53 64.5778 25.322 64.7058 25.1087C64.8444 24.8954 64.9138 24.6874 64.9138 24.4847V23.1567ZM68.8154 27.2207C68.7407 27.2207 68.682 27.2047 68.6394 27.1727C68.6074 27.13 68.5914 27.0767 68.5914 27.0127V18.9487C68.5914 18.81 68.65 18.7407 68.7674 18.7407H69.6954C69.8127 18.7407 69.8714 18.7994 69.8714 18.9167V19.9567C69.8714 20.0207 69.8874 20.058 69.9194 20.0687C69.9514 20.0794 69.994 20.058 70.0474 20.0047C70.3247 19.674 70.5967 19.4074 70.8634 19.2047C71.1407 18.9914 71.418 18.8367 71.6954 18.7407C71.9727 18.634 72.25 18.5807 72.5274 18.5807C72.9007 18.5807 73.0874 18.65 73.0874 18.7887V19.7487C73.0874 19.8554 73.0394 19.898 72.9434 19.8767C72.8474 19.866 72.7354 19.8554 72.6074 19.8447C72.49 19.834 72.362 19.8287 72.2234 19.8287C71.9887 19.8287 71.738 19.882 71.4714 19.9887C71.2047 20.0847 70.954 20.2234 70.7194 20.4047C70.4954 20.586 70.3087 20.7887 70.1594 21.0127C70.01 21.2367 69.9354 21.4607 69.9354 21.6847V26.9807C69.9354 27.1407 69.8554 27.2207 69.6954 27.2207H68.8154ZM76.9564 19.7487C76.871 19.7487 76.8284 19.7914 76.8284 19.8767V24.9487C76.8284 25.45 76.9137 25.786 77.0844 25.9567C77.255 26.1274 77.511 26.2127 77.8524 26.2127H78.9564C79.0097 26.2127 79.0524 26.2287 79.0844 26.2607C79.1164 26.282 79.1324 26.3247 79.1324 26.3887L79.1164 26.9327C79.1164 27.0394 79.0524 27.1087 78.9244 27.1407C78.8177 27.162 78.663 27.178 78.4604 27.1887C78.2684 27.1994 78.0764 27.21 77.8844 27.2207C77.703 27.2207 77.5484 27.2207 77.4204 27.2207C76.7484 27.2207 76.2577 27.066 75.9484 26.7567C75.639 26.4367 75.4844 25.9354 75.4844 25.2527V19.9087C75.4844 19.802 75.431 19.7487 75.3244 19.7487H74.0444C73.927 19.7487 73.8684 19.69 73.8684 19.5727V18.9007C73.8684 18.794 73.9217 18.7407 74.0284 18.7407H75.3884C75.463 18.7407 75.5004 18.698 75.5004 18.6127L75.6764 16.0687C75.687 15.93 75.7457 15.8607 75.8524 15.8607H76.6524C76.7804 15.8607 76.8444 15.9354 76.8444 16.0847V18.6127C76.8444 18.698 76.887 18.7407 76.9724 18.7407H78.9884C79.1057 18.7407 79.1644 18.7887 79.1644 18.8847V19.5727C79.1644 19.69 79.1057 19.7487 78.9884 19.7487H76.9564ZM81.5968 23.5087C81.5968 24.0314 81.7194 24.5114 81.9648 24.9487C82.2208 25.3754 82.5568 25.7167 82.9728 25.9727C83.3994 26.2287 83.8741 26.3567 84.3968 26.3567C84.9301 26.3567 85.4048 26.25 85.8208 26.0367C86.2368 25.8127 86.5941 25.4767 86.8928 25.0287C86.9354 24.986 86.9674 24.9647 86.9888 24.9647C87.0208 24.954 87.0634 24.9594 87.1168 24.9807L87.7888 25.3167C87.8848 25.37 87.8954 25.4447 87.8208 25.5407C87.5328 25.9674 87.2128 26.3194 86.8608 26.5967C86.5194 26.8634 86.1354 27.0607 85.7088 27.1887C85.2821 27.3167 84.8021 27.3807 84.2688 27.3807C83.4794 27.3807 82.7808 27.1994 82.1728 26.8367C81.5648 26.474 81.0848 25.9674 80.7328 25.3167C80.3808 24.666 80.2048 23.914 80.2048 23.0607C80.2048 22.1327 80.3808 21.338 80.7328 20.6767C81.0954 20.0047 81.5808 19.4874 82.1888 19.1247C82.8074 18.762 83.4954 18.5807 84.2528 18.5807C85.0314 18.5807 85.7088 18.7514 86.2848 19.0927C86.8608 19.434 87.3088 19.93 87.6288 20.5807C87.9488 21.2314 88.1088 22.0154 88.1088 22.9327C88.1088 23.0074 88.0981 23.082 88.0768 23.1567C88.0661 23.2314 87.9968 23.2687 87.8688 23.2687H81.7408C81.6981 23.2687 81.6608 23.2954 81.6288 23.3487C81.6074 23.3914 81.5968 23.4447 81.5968 23.5087ZM86.4928 22.3887C86.6101 22.3887 86.6848 22.378 86.7168 22.3567C86.7488 22.3247 86.7648 22.2607 86.7648 22.1647C86.7648 21.706 86.6634 21.2794 86.4608 20.8847C86.2688 20.4794 85.9861 20.154 85.6128 19.9087C85.2501 19.6634 84.8074 19.5407 84.2848 19.5407C83.7088 19.5407 83.2234 19.6794 82.8288 19.9567C82.4341 20.2234 82.1354 20.5754 81.9328 21.0127C81.7301 21.45 81.6288 21.9087 81.6288 22.3887H86.4928ZM96.0296 27.2207C95.955 27.2207 95.8963 27.2047 95.8536 27.1727C95.8216 27.13 95.8056 27.0714 95.8056 26.9967V26.3247C95.8056 26.2394 95.7843 26.1914 95.7416 26.1807C95.7096 26.17 95.6616 26.1967 95.5976 26.2607C95.4803 26.3674 95.3096 26.5114 95.0856 26.6927C94.8723 26.874 94.6003 27.034 94.2696 27.1727C93.939 27.3114 93.5443 27.3807 93.0856 27.3807C92.4136 27.3807 91.811 27.2207 91.2776 26.9007C90.7443 26.5807 90.3176 26.106 89.9976 25.4767C89.6883 24.8367 89.5336 24.0474 89.5336 23.1087C89.5336 22.202 89.6883 21.4127 89.9976 20.7407C90.3176 20.058 90.7603 19.53 91.3256 19.1567C91.9016 18.7727 92.5523 18.5807 93.2776 18.5807C93.8003 18.5807 94.2376 18.666 94.5896 18.8367C94.9416 19.0074 95.251 19.2047 95.5176 19.4287C95.6136 19.5034 95.6776 19.5354 95.7096 19.5247C95.7523 19.5034 95.7736 19.434 95.7736 19.3167V15.5567C95.7736 15.418 95.8323 15.3487 95.9496 15.3487H96.9256C97.043 15.3487 97.1016 15.418 97.1016 15.5567V26.9647C97.1016 27.0607 97.0856 27.13 97.0536 27.1727C97.0216 27.2047 96.9523 27.2207 96.8456 27.2207H96.0296ZM95.7576 20.6127C95.427 20.282 95.091 20.026 94.7496 19.8447C94.4083 19.6634 94.0243 19.5727 93.5976 19.5727C93.0856 19.5727 92.6216 19.706 92.2056 19.9727C91.8003 20.2287 91.4803 20.618 91.2456 21.1407C91.0216 21.6634 90.9096 22.3034 90.9096 23.0607C90.9096 23.8394 91.027 24.4794 91.2616 24.9807C91.4963 25.4714 91.811 25.834 92.2056 26.0687C92.6003 26.2927 93.0323 26.4047 93.5016 26.4047C93.939 26.4047 94.323 26.3034 94.6536 26.1007C94.995 25.898 95.2616 25.6474 95.4536 25.3487C95.6563 25.05 95.7576 24.7567 95.7576 24.4687V20.6127Z" fill="black"/>
</svg>
