<svg width="110" height="43" viewBox="0 0 110 43" fill="none" xmlns="http://www.w3.org/2000/svg">
<rect y="0.720703" width="110" height="42" rx="8" fill="#F66868"/>
<path d="M29.112 27.3807C28.0667 27.3807 27.16 27.146 26.392 26.6767C25.6347 26.2074 25.0533 25.5247 24.648 24.6287C24.2427 23.722 24.04 22.6234 24.04 21.3327C24.04 20.0314 24.248 18.922 24.664 18.0047C25.08 17.0874 25.6667 16.3887 26.424 15.9087C27.1813 15.4287 28.0827 15.1887 29.128 15.1887C30.1733 15.1887 31.0693 15.4287 31.816 15.9087C32.5733 16.3887 33.1547 17.082 33.56 17.9887C33.976 18.8954 34.184 20.0047 34.184 21.3167C34.184 22.6074 33.9813 23.706 33.576 24.6127C33.1707 25.5087 32.584 26.1967 31.816 26.6767C31.0587 27.146 30.1573 27.3807 29.112 27.3807ZM29.144 26.2127C30.296 26.2127 31.1547 25.818 31.72 25.0287C32.296 24.2287 32.584 22.9967 32.584 21.3327C32.584 19.6367 32.2907 18.3834 31.704 17.5727C31.128 16.762 30.2693 16.3567 29.128 16.3567C27.976 16.3567 27.1067 16.7674 26.52 17.5887C25.9333 18.3994 25.64 19.6474 25.64 21.3327C25.64 22.986 25.9333 24.2127 26.52 25.0127C27.1067 25.8127 27.9813 26.2127 29.144 26.2127ZM43.3468 18.7407C43.4214 18.7407 43.4748 18.7674 43.5068 18.8207C43.5388 18.8634 43.5388 18.9167 43.5068 18.9807L40.2588 26.9807C40.2054 27.1407 40.0828 27.2207 39.8908 27.2207H39.3148C39.1121 27.2207 38.9788 27.146 38.9148 26.9967L35.6828 18.9807C35.6614 18.9167 35.6668 18.8634 35.6988 18.8207C35.7308 18.7674 35.7841 18.7407 35.8588 18.7407H36.8508C36.9148 18.7407 36.9681 18.7567 37.0108 18.7887C37.0534 18.81 37.0854 18.8527 37.1068 18.9167L39.6188 25.2047C39.6934 25.4074 39.7788 25.402 39.8748 25.1887L42.3708 18.9167C42.3921 18.8527 42.4188 18.81 42.4508 18.7887C42.4934 18.7567 42.5468 18.7407 42.6108 18.7407H43.3468ZM45.6905 23.5087C45.6905 24.0314 45.8132 24.5114 46.0585 24.9487C46.3145 25.3754 46.6505 25.7167 47.0665 25.9727C47.4932 26.2287 47.9678 26.3567 48.4905 26.3567C49.0238 26.3567 49.4985 26.25 49.9145 26.0367C50.3305 25.8127 50.6878 25.4767 50.9865 25.0287C51.0292 24.986 51.0612 24.9647 51.0825 24.9647C51.1145 24.954 51.1572 24.9594 51.2105 24.9807L51.8825 25.3167C51.9785 25.37 51.9892 25.4447 51.9145 25.5407C51.6265 25.9674 51.3065 26.3194 50.9545 26.5967C50.6132 26.8634 50.2292 27.0607 49.8025 27.1887C49.3758 27.3167 48.8958 27.3807 48.3625 27.3807C47.5732 27.3807 46.8745 27.1994 46.2665 26.8367C45.6585 26.474 45.1785 25.9674 44.8265 25.3167C44.4745 24.666 44.2985 23.914 44.2985 23.0607C44.2985 22.1327 44.4745 21.338 44.8265 20.6767C45.1892 20.0047 45.6745 19.4874 46.2825 19.1247C46.9012 18.762 47.5892 18.5807 48.3465 18.5807C49.1252 18.5807 49.8025 18.7514 50.3785 19.0927C50.9545 19.434 51.4025 19.93 51.7225 20.5807C52.0425 21.2314 52.2025 22.0154 52.2025 22.9327C52.2025 23.0074 52.1918 23.082 52.1705 23.1567C52.1598 23.2314 52.0905 23.2687 51.9625 23.2687H45.8345C45.7918 23.2687 45.7545 23.2954 45.7225 23.3487C45.7012 23.3914 45.6905 23.4447 45.6905 23.5087ZM50.5865 22.3887C50.7038 22.3887 50.7785 22.378 50.8105 22.3567C50.8425 22.3247 50.8585 22.2607 50.8585 22.1647C50.8585 21.706 50.7572 21.2794 50.5545 20.8847C50.3625 20.4794 50.0798 20.154 49.7065 19.9087C49.3438 19.6634 48.9012 19.5407 48.3785 19.5407C47.8025 19.5407 47.3172 19.6794 46.9225 19.9567C46.5278 20.2234 46.2292 20.5754 46.0265 21.0127C45.8238 21.45 45.7225 21.9087 45.7225 22.3887H50.5865ZM54.3154 27.2207C54.2407 27.2207 54.182 27.2047 54.1394 27.1727C54.1074 27.13 54.0914 27.0767 54.0914 27.0127V18.9487C54.0914 18.81 54.15 18.7407 54.2674 18.7407H55.1954C55.3127 18.7407 55.3714 18.7994 55.3714 18.9167V19.9567C55.3714 20.0207 55.3874 20.058 55.4194 20.0687C55.4514 20.0794 55.494 20.058 55.5474 20.0047C55.8247 19.674 56.0967 19.4074 56.3634 19.2047C56.6407 18.9914 56.918 18.8367 57.1954 18.7407C57.4727 18.634 57.75 18.5807 58.0274 18.5807C58.4007 18.5807 58.5874 18.65 58.5874 18.7887V19.7487C58.5874 19.8554 58.5394 19.898 58.4434 19.8767C58.3474 19.866 58.2354 19.8554 58.1074 19.8447C57.99 19.834 57.862 19.8287 57.7234 19.8287C57.4887 19.8287 57.238 19.882 56.9714 19.9887C56.7047 20.0847 56.454 20.2234 56.2194 20.4047C55.9954 20.586 55.8087 20.7887 55.6594 21.0127C55.51 21.2367 55.4354 21.4607 55.4354 21.6847V26.9807C55.4354 27.1407 55.3554 27.2207 55.1954 27.2207H54.3154ZM66.0453 27.2207C65.9706 27.2207 65.9119 27.2047 65.8693 27.1727C65.8373 27.13 65.8213 27.0714 65.8213 26.9967V26.3247C65.8213 26.2394 65.7999 26.1914 65.7573 26.1807C65.7253 26.17 65.6773 26.1967 65.6133 26.2607C65.4959 26.3674 65.3253 26.5114 65.1013 26.6927C64.8879 26.874 64.6159 27.034 64.2853 27.1727C63.9546 27.3114 63.5599 27.3807 63.1013 27.3807C62.4293 27.3807 61.8266 27.2207 61.2933 26.9007C60.7599 26.5807 60.3333 26.106 60.0133 25.4767C59.7039 24.8367 59.5493 24.0474 59.5493 23.1087C59.5493 22.202 59.7039 21.4127 60.0133 20.7407C60.3333 20.058 60.7759 19.53 61.3413 19.1567C61.9173 18.7727 62.5679 18.5807 63.2933 18.5807C63.8159 18.5807 64.2533 18.666 64.6053 18.8367C64.9573 19.0074 65.2666 19.2047 65.5333 19.4287C65.6293 19.5034 65.6933 19.5354 65.7253 19.5247C65.7679 19.5034 65.7893 19.434 65.7893 19.3167V15.5567C65.7893 15.418 65.8479 15.3487 65.9653 15.3487H66.9413C67.0586 15.3487 67.1173 15.418 67.1173 15.5567V26.9647C67.1173 27.0607 67.1013 27.13 67.0693 27.1727C67.0373 27.2047 66.9679 27.2207 66.8612 27.2207H66.0453ZM65.7733 20.6127C65.4426 20.282 65.1066 20.026 64.7653 19.8447C64.4239 19.6634 64.0399 19.5727 63.6133 19.5727C63.1013 19.5727 62.6373 19.706 62.2213 19.9727C61.8159 20.2287 61.4959 20.618 61.2613 21.1407C61.0373 21.6634 60.9253 22.3034 60.9253 23.0607C60.9253 23.8394 61.0426 24.4794 61.2773 24.9807C61.5119 25.4714 61.8266 25.834 62.2213 26.0687C62.6159 26.2927 63.0479 26.4047 63.5173 26.4047C63.9546 26.4047 64.3386 26.3034 64.6693 26.1007C65.0106 25.898 65.2773 25.6474 65.4693 25.3487C65.6719 25.05 65.7733 24.7567 65.7733 24.4687V20.6127ZM72.4714 26.3247C72.93 26.3247 73.3674 26.202 73.7834 25.9567C74.21 25.7007 74.6314 25.3594 75.0474 24.9327V18.9807C75.0474 18.8207 75.1327 18.7407 75.3034 18.7407H76.1834C76.3327 18.7407 76.4074 18.8154 76.4074 18.9647L76.3754 27.0127C76.3754 27.1514 76.3167 27.2207 76.1994 27.2207H75.2714C75.154 27.2207 75.0954 27.162 75.0954 27.0447V26.1007C75.0954 26.0474 75.0847 26.0154 75.0634 26.0047C75.042 25.994 75.0047 26.01 74.9514 26.0527C74.3647 26.554 73.842 26.9007 73.3834 27.0927C72.9354 27.2847 72.4874 27.3807 72.0394 27.3807C71.5487 27.3807 71.1114 27.2794 70.7274 27.0767C70.3434 26.874 70.0394 26.5914 69.8154 26.2287C69.5914 25.8554 69.4794 25.4234 69.4794 24.9327V18.9967C69.4794 18.826 69.5594 18.7407 69.7194 18.7407H70.6154C70.754 18.7407 70.8234 18.8154 70.8234 18.9647V24.5807C70.8234 25.1034 70.9674 25.5247 71.2554 25.8447C71.554 26.1647 71.9594 26.3247 72.4714 26.3247ZM79.753 23.5087C79.753 24.0314 79.8757 24.5114 80.121 24.9487C80.377 25.3754 80.713 25.7167 81.129 25.9727C81.5557 26.2287 82.0303 26.3567 82.553 26.3567C83.0863 26.3567 83.561 26.25 83.977 26.0367C84.393 25.8127 84.7503 25.4767 85.049 25.0287C85.0917 24.986 85.1237 24.9647 85.145 24.9647C85.177 24.954 85.2197 24.9594 85.273 24.9807L85.945 25.3167C86.041 25.37 86.0517 25.4447 85.977 25.5407C85.689 25.9674 85.369 26.3194 85.017 26.5967C84.6757 26.8634 84.2917 27.0607 83.865 27.1887C83.4383 27.3167 82.9583 27.3807 82.425 27.3807C81.6357 27.3807 80.937 27.1994 80.329 26.8367C79.721 26.474 79.241 25.9674 78.889 25.3167C78.537 24.666 78.361 23.914 78.361 23.0607C78.361 22.1327 78.537 21.338 78.889 20.6767C79.2517 20.0047 79.737 19.4874 80.345 19.1247C80.9637 18.762 81.6517 18.5807 82.409 18.5807C83.1877 18.5807 83.865 18.7514 84.441 19.0927C85.017 19.434 85.465 19.93 85.785 20.5807C86.105 21.2314 86.265 22.0154 86.265 22.9327C86.265 23.0074 86.2543 23.082 86.233 23.1567C86.2223 23.2314 86.153 23.2687 86.025 23.2687H79.897C79.8543 23.2687 79.817 23.2954 79.785 23.3487C79.7637 23.3914 79.753 23.4447 79.753 23.5087ZM84.649 22.3887C84.7663 22.3887 84.841 22.378 84.873 22.3567C84.905 22.3247 84.921 22.2607 84.921 22.1647C84.921 21.706 84.8197 21.2794 84.617 20.8847C84.425 20.4794 84.1423 20.154 83.769 19.9087C83.4063 19.6634 82.9637 19.5407 82.441 19.5407C81.865 19.5407 81.3797 19.6794 80.985 19.9567C80.5903 20.2234 80.2917 20.5754 80.089 21.0127C79.8863 21.45 79.785 21.9087 79.785 22.3887H84.649Z" fill="black"/>
</svg>
